<svg xmlns="http://www.w3.org/2000/svg" width="80" height="80" viewBox="0 0 80 80">
  <defs>
    <style>
      .b-line { stroke: oklch(0.236 0.001 295); fill: none; }
      .b-dot  { fill: oklch(0.236 0.001 295); }
    </style>
  </defs>

  <!-- Kawung kontemporer: 4 elips mengelilingi titik tengah, disusun grid offset -->
  <g class="b-line" stroke-width="1" opacity="0.5">
    <!-- unit kawung kiri atas -->
    <ellipse cx="20" cy="12" rx="9" ry="13" transform="rotate(0 20 12)"/>
    <ellipse cx="20" cy="12" rx="9" ry="13" transform="rotate(90 20 12)"/>
    <ellipse cx="20" cy="52" rx="9" ry="13" transform="rotate(0 20 52)"/>
    <ellipse cx="20" cy="52" rx="9" ry="13" transform="rotate(90 20 52)"/>

    <ellipse cx="60" cy="12" rx="9" ry="13" transform="rotate(0 60 12)"/>
    <ellipse cx="60" cy="12" rx="9" ry="13" transform="rotate(90 60 12)"/>
    <ellipse cx="60" cy="52" rx="9" ry="13" transform="rotate(0 60 52)"/>
    <ellipse cx="60" cy="52" rx="9" ry="13" transform="rotate(90 60 52)"/>

    <!-- unit offset tengah, ciri khas Bandung: elemen geometris tambahan -->
    <ellipse cx="40" cy="32" rx="9" ry="13" transform="rotate(0 40 32)"/>
    <ellipse cx="40" cy="32" rx="9" ry="13" transform="rotate(90 40 32)"/>
    <ellipse cx="0" cy="32" rx="9" ry="13" transform="rotate(0 0 32)"/>
    <ellipse cx="0" cy="32" rx="9" ry="13" transform="rotate(90 0 32)"/>
    <ellipse cx="80" cy="32" rx="9" ry="13" transform="rotate(0 80 32)"/>
    <ellipse cx="80" cy="32" rx="9" ry="13" transform="rotate(90 80 32)"/>
    <ellipse cx="40" cy="-8" rx="9" ry="13" transform="rotate(0 40 -8)"/>
    <ellipse cx="40" cy="-8" rx="9" ry="13" transform="rotate(90 40 -8)"/>
    <ellipse cx="40" cy="72" rx="9" ry="13" transform="rotate(0 40 72)"/>
    <ellipse cx="40" cy="72" rx="9" ry="13" transform="rotate(90 40 72)"/>
  </g>

  <!-- titik tengah tiap unit kawung, aksen geometris tambahan -->
  <g class="b-dot" opacity="0.6">
    <circle cx="20" cy="12" r="2"/>
    <circle cx="20" cy="52" r="2"/>
    <circle cx="60" cy="12" r="2"/>
    <circle cx="60" cy="52" r="2"/>
    <circle cx="40" cy="32" r="2"/>
    <circle cx="0" cy="32" r="2"/>
    <circle cx="80" cy="32" r="2"/>
  </g>
</svg>
